<svg width="20" height="17" viewBox="0 0 20 17" fill="none" xmlns="http://www.w3.org/2000/svg">
<path d="M0 16.5V13.5H2V2.5C2 1.95 2.196 1.47933 2.588 1.088C2.97933 0.696 3.45 0.5 4 0.5H19V2.5H4V13.5H10V16.5H0ZM13 16.5C12.7167 16.5 12.4793 16.404 12.288 16.212C12.096 16.0207 12 15.7833 12 15.5V5.5C12 5.21667 12.096 4.979 12.288 4.787C12.4793 4.59567 12.7167 4.5 13 4.5H19C19.2833 4.5 19.5207 4.59567 19.712 4.787C19.904 4.979 20 5.21667 20 5.5V15.5C20 15.7833 19.904 16.0207 19.712 16.212C19.5207 16.404 19.2833 16.5 19 16.5H13ZM14 13.5H18V6.5H14V13.5Z" fill="black"/>
</svg>
