<svg width="32" height="32" viewBox="0 0 32 32" fill="none" xmlns="http://www.w3.org/2000/svg">
<rect width="32" height="32" rx="16" fill="black"/>
<rect width="32" height="32" rx="16" fill="black" fill-opacity="0.2"/>
<path d="M18.9723 15.772H20.9403V20.236C20.3643 20.6947 19.6923 21.0467 18.9243 21.292C18.1563 21.5373 17.367 21.66 16.5563 21.66C15.415 21.66 14.3856 21.4147 13.4683 20.924C12.551 20.4227 11.831 19.7347 11.3083 18.86C10.7856 17.9853 10.5243 16.9987 10.5243 15.9C10.5243 14.8013 10.7856 13.8147 11.3083 12.94C11.831 12.0653 12.551 11.3827 13.4683 10.892C14.3963 10.3907 15.4363 10.14 16.5883 10.14C17.527 10.14 18.3803 10.2947 19.1483 10.604C19.9163 10.9133 20.5616 11.3667 21.0843 11.964L19.7723 13.244C18.919 12.3907 17.8896 11.964 16.6843 11.964C15.895 11.964 15.191 12.1293 14.5723 12.46C13.9643 12.7907 13.4843 13.2547 13.1323 13.852C12.791 14.4493 12.6203 15.132 12.6203 15.9C12.6203 16.6467 12.791 17.3187 13.1323 17.916C13.4843 18.5133 13.9643 18.9827 14.5723 19.324C15.191 19.6653 15.8896 19.836 16.6683 19.836C17.543 19.836 18.311 19.644 18.9723 19.26V15.772Z" fill="white"/>
</svg>
