<svg width="20" height="20" viewBox="0 0 20 20" fill="none" xmlns="http://www.w3.org/2000/svg">
<path d="M9.66699 14.1666H11.3337V10.8333H14.667V9.16663H11.3337V5.83329H9.66699V9.16663H6.33366V10.8333H9.66699V14.1666ZM10.5003 18.3333C9.34755 18.3333 8.26422 18.1144 7.25033 17.6766C6.23644 17.2394 5.35449 16.6458 4.60449 15.8958C3.85449 15.1458 3.26088 14.2638 2.82366 13.25C2.38588 12.2361 2.16699 11.1527 2.16699 9.99996C2.16699 8.84718 2.38588 7.76385 2.82366 6.74996C3.26088 5.73607 3.85449 4.85413 4.60449 4.10413C5.35449 3.35413 6.23644 2.76024 7.25033 2.32246C8.26422 1.88524 9.34755 1.66663 10.5003 1.66663C11.6531 1.66663 12.7364 1.88524 13.7503 2.32246C14.7642 2.76024 15.6462 3.35413 16.3962 4.10413C17.1462 4.85413 17.7398 5.73607 18.177 6.74996C18.6148 7.76385 18.8337 8.84718 18.8337 9.99996C18.8337 11.1527 18.6148 12.2361 18.177 13.25C17.7398 14.2638 17.1462 15.1458 16.3962 15.8958C15.6462 16.6458 14.7642 17.2394 13.7503 17.6766C12.7364 18.1144 11.6531 18.3333 10.5003 18.3333Z" fill="#4472C4"/>
</svg>
