<svg width="20" height="20" viewBox="0 0 20 20" fill="none" xmlns="http://www.w3.org/2000/svg">
<g clip-path="url(#clip0_219_5626)">
<path d="M16.6911 14.375L15.4411 13.125C15.5939 12.75 15.7086 12.3856 15.7852 12.0317C15.8614 11.6773 15.8994 11.3056 15.8994 10.9167C15.8994 9.3056 15.33 7.91671 14.1911 6.75004C13.0522 5.58337 11.6772 5.00004 10.0661 5.00004C9.67719 5.00004 9.30219 5.03115 8.94108 5.09337C8.57997 5.15615 8.21886 5.26393 7.85775 5.41671L6.60775 4.16671C7.13553 3.88893 7.68775 3.6806 8.26441 3.54171C8.84053 3.40282 9.44108 3.33337 10.0661 3.33337C11.0939 3.33337 12.0627 3.52782 12.9727 3.91671C13.8822 4.3056 14.6772 4.84365 15.3577 5.53087C16.0383 6.21865 16.5766 7.02087 16.9727 7.93754C17.3683 8.85421 17.5661 9.84726 17.5661 10.9167C17.5661 11.5417 17.4897 12.1423 17.3369 12.7184C17.1841 13.295 16.9689 13.8473 16.6911 14.375ZM17.7744 6.66671L14.2327 3.12504L15.3994 1.95837L18.9411 5.50004L17.7744 6.66671ZM17.1494 19.5L14.5244 16.875C13.8994 17.3334 13.2086 17.6912 12.4519 17.9484C11.6947 18.205 10.8994 18.3334 10.0661 18.3334C9.0383 18.3334 8.06941 18.1389 7.15941 17.75C6.24997 17.3612 5.45497 16.8334 4.77441 16.1667C4.09386 15.5 3.55553 14.7153 3.15941 13.8125C2.76386 12.9098 2.56608 11.9445 2.56608 10.9167C2.56608 10.0556 2.69469 9.24671 2.95191 8.49004C3.20858 7.73282 3.57997 7.04171 4.06608 6.41671L3.35775 5.70837L2.35775 6.70837L1.19108 5.54171L2.19108 4.54171L0.649414 3.00004L1.81608 1.83337L18.3161 18.3334L17.1494 19.5ZM10.0661 16.6875C10.6494 16.6875 11.2189 16.5973 11.7744 16.4167C12.33 16.2362 12.8439 15.9862 13.3161 15.6667L5.23275 7.62504C4.9133 8.11115 4.66664 8.63532 4.49275 9.19754C4.31941 9.76032 4.23275 10.3334 4.23275 10.9167C4.23275 12.5278 4.80219 13.8923 5.94108 15.01C7.07997 16.1284 8.45497 16.6875 10.0661 16.6875Z" fill="white"/>
</g>
<defs>
<clipPath id="clip0_219_5626">
<rect width="20" height="20" fill="white" transform="translate(0.0664062)"/>
</clipPath>
</defs>
</svg>
