<svg width="20" height="20" viewBox="0 0 20 20" fill="none" xmlns="http://www.w3.org/2000/svg">
<path d="M2.56641 7.50004H5.89974V4.16671H2.56641V7.50004ZM7.56641 17.5H10.8997V14.1667H7.56641V17.5ZM2.56641 17.5H5.89974V14.1667H2.56641V17.5ZM2.56641 12.5H5.89974V9.16671H2.56641V12.5ZM7.56641 12.5H10.8997V9.16671H7.56641V12.5ZM12.5664 17.5H15.8997V14.1667H12.5664V17.5ZM15.0664 0.833374C12.7664 0.833374 10.8997 2.70004 10.8997 5.00004C10.8997 7.30004 12.7664 9.16671 15.0664 9.16671C17.3664 9.16671 19.2331 7.30004 19.2331 5.00004C19.2331 2.70004 17.3664 0.833374 15.0664 0.833374ZM15.4831 7.50004H14.6497V6.66671H15.4831V7.50004ZM15.4831 5.83337H14.6497V2.50004H15.4831V5.83337ZM12.5664 12.5H15.8997V10.775C15.6247 10.8167 15.3497 10.8334 15.0664 10.8334C14.1747 10.8334 13.3247 10.6334 12.5664 10.2667V12.5ZM7.56641 4.16671V7.50004H9.79974C9.43307 6.74171 9.23307 5.89171 9.23307 5.00004C9.23307 4.71671 9.24974 4.44171 9.29141 4.16671H7.56641Z" fill="white"/>
</svg>
