<svg width="20" height="20" viewBox="0 0 20 20" fill="none" xmlns="http://www.w3.org/2000/svg">
<path d="M5.62484 17.5L5.4165 15.6667L7.7915 9.125C7.99984 9.31944 8.22567 9.4825 8.469 9.61417C8.71178 9.74639 8.97206 9.84722 9.24984 9.91667L6.95817 16.2083L5.62484 17.5ZM14.3748 17.5L13.0415 16.2083L10.7498 9.91667C11.0276 9.84722 11.2882 9.74639 11.5315 9.61417C11.7743 9.4825 11.9998 9.31944 12.2082 9.125L14.5832 15.6667L14.3748 17.5ZM9.99984 9.16667C9.30539 9.16667 8.71511 8.92361 8.229 8.4375C7.74289 7.95139 7.49984 7.36111 7.49984 6.66667C7.49984 6.125 7.65595 5.64222 7.96817 5.21833C8.28095 4.795 8.68039 4.5 9.1665 4.33333V2.5H10.8332V4.33333C11.3193 4.5 11.7187 4.795 12.0315 5.21833C12.3437 5.64222 12.4998 6.125 12.4998 6.66667C12.4998 7.36111 12.2568 7.95139 11.7707 8.4375C11.2846 8.92361 10.6943 9.16667 9.99984 9.16667ZM9.99984 7.5C10.2359 7.5 10.434 7.42 10.594 7.26C10.7534 7.10056 10.8332 6.90278 10.8332 6.66667C10.8332 6.43056 10.7534 6.2325 10.594 6.0725C10.434 5.91306 10.2359 5.83333 9.99984 5.83333C9.76373 5.83333 9.56595 5.91306 9.4065 6.0725C9.2465 6.2325 9.1665 6.43056 9.1665 6.66667C9.1665 6.90278 9.2465 7.10056 9.4065 7.26C9.56595 7.42 9.76373 7.5 9.99984 7.5Z" fill="black"/>
</svg>
