<svg width="20" height="20" viewBox="0 0 20 20" fill="none" xmlns="http://www.w3.org/2000/svg">
<path d="M4.16667 18.3333C3.70833 18.3333 3.31583 18.1702 2.98917 17.8441C2.66306 17.5175 2.5 17.125 2.5 16.6666V4.99996C2.5 4.54163 2.66306 4.1494 2.98917 3.82329C3.31583 3.49663 3.70833 3.33329 4.16667 3.33329H5V1.66663H6.66667V3.33329H13.3333V1.66663H15V3.33329H15.8333C16.2917 3.33329 16.6842 3.49663 17.0108 3.82329C17.3369 4.1494 17.5 4.54163 17.5 4.99996V16.6666C17.5 17.125 17.3369 17.5175 17.0108 17.8441C16.6842 18.1702 16.2917 18.3333 15.8333 18.3333H4.16667ZM4.16667 16.6666H15.8333V8.33329H4.16667V16.6666ZM4.16667 6.66663H15.8333V4.99996H4.16667V6.66663ZM4.16667 6.66663V4.99996V6.66663Z" fill="black"/>
</svg>
