<svg width="21" height="20" viewBox="0 0 21 20" fill="none" xmlns="http://www.w3.org/2000/svg">
<path d="M5.89986 14.1667H9.23319V10.8333H5.89986V14.1667ZM10.8999 14.1667H14.2332V10.8333H10.8999V14.1667ZM5.89986 9.16667H9.23319V5.83333H5.89986V9.16667ZM10.8999 9.16667H14.2332V5.83333H10.8999V9.16667ZM4.23319 17.5C3.77486 17.5 3.38236 17.3369 3.05569 17.0108C2.72958 16.6842 2.56653 16.2917 2.56653 15.8333V4.16667C2.56653 3.70833 2.72958 3.31583 3.05569 2.98917C3.38236 2.66306 3.77486 2.5 4.23319 2.5H15.8999C16.3582 2.5 16.7507 2.66306 17.0774 2.98917C17.4035 3.31583 17.5665 3.70833 17.5665 4.16667V15.8333C17.5665 16.2917 17.4035 16.6842 17.0774 17.0108C16.7507 17.3369 16.3582 17.5 15.8999 17.5H4.23319ZM4.23319 15.8333H15.8999V4.16667H4.23319V15.8333ZM4.23319 4.16667V15.8333V4.16667Z" fill="white"/>
</svg>
