<svg width="20" height="20" viewBox="0 0 20 20" fill="none" xmlns="http://www.w3.org/2000/svg">
<path d="M5.89974 9.16663H7.56641V10.8333H5.89974V9.16663ZM17.5664 4.99996V16.6666C17.5664 17.5833 16.8164 18.3333 15.8997 18.3333H4.23307C3.30807 18.3333 2.56641 17.5833 2.56641 16.6666L2.57474 4.99996C2.57474 4.08329 3.30807 3.33329 4.23307 3.33329H5.06641V1.66663H6.73307V3.33329H13.3997V1.66663H15.0664V3.33329H15.8997C16.8164 3.33329 17.5664 4.08329 17.5664 4.99996ZM4.23307 6.66663H15.8997V4.99996H4.23307V6.66663ZM15.8997 16.6666V8.33329H4.23307V16.6666H15.8997ZM12.5664 10.8333H14.2331V9.16663H12.5664V10.8333ZM9.23307 10.8333H10.8997V9.16663H9.23307V10.8333Z" fill="white"/>
</svg>
