<svg width="24" height="24" viewBox="0 0 24 24" fill="none" xmlns="http://www.w3.org/2000/svg">
<rect width="24" height="24" rx="12" fill="black"/>
<rect width="24" height="24" rx="12" fill="black" fill-opacity="0.2"/>
<path d="M5 17.6V15.5H6.4V7.79999C6.4 7.41499 6.5372 7.08553 6.8116 6.81159C7.08553 6.53719 7.415 6.39999 7.8 6.39999H18.3V7.79999H7.8V15.5H12V17.6H5ZM14.1 17.6C13.9017 17.6 13.7355 17.5328 13.6016 17.3984C13.4672 17.2645 13.4 17.0983 13.4 16.9V9.89999C13.4 9.70166 13.4672 9.53529 13.6016 9.40089C13.7355 9.26696 13.9017 9.19999 14.1 9.19999H18.3C18.4983 9.19999 18.6645 9.26696 18.7984 9.40089C18.9328 9.53529 19 9.70166 19 9.89999V16.9C19 17.0983 18.9328 17.2645 18.7984 17.3984C18.6645 17.5328 18.4983 17.6 18.3 17.6H14.1ZM14.8 15.5H17.6V10.6H14.8V15.5Z" fill="white"/>
</svg>
