<svg width="19" height="16" viewBox="0 0 19 16" fill="none" xmlns="http://www.w3.org/2000/svg">
<path d="M0.998047 15.2V12.5H2.79805V2.6C2.79805 2.105 2.97445 1.6814 3.32725 1.3292C3.67945 0.976403 4.10305 0.800003 4.59805 0.800003H18.098V2.6H4.59805V12.5H9.99805V15.2H0.998047ZM12.698 15.2C12.443 15.2 12.2294 15.1136 12.0572 14.9408C11.8844 14.7686 11.798 14.555 11.798 14.3V5.3C11.798 5.045 11.8844 4.8311 12.0572 4.6583C12.2294 4.4861 12.443 4.4 12.698 4.4H18.098C18.353 4.4 18.5666 4.4861 18.7388 4.6583C18.9116 4.8311 18.998 5.045 18.998 5.3V14.3C18.998 14.555 18.9116 14.7686 18.7388 14.9408C18.5666 15.1136 18.353 15.2 18.098 15.2H12.698ZM13.598 12.5H17.198V6.2H13.598V12.5Z" fill="white"/>
</svg>
