<svg width="20" height="20" viewBox="0 0 20 20" fill="none" xmlns="http://www.w3.org/2000/svg">
<path d="M15.8331 4.17504C15.6664 3.68337 15.1997 3.33337 14.6497 3.33337H5.48307C4.93307 3.33337 4.47474 3.68337 4.29974 4.17504L2.56641 9.16671V15.8334C2.56641 16.2917 2.94141 16.6667 3.39974 16.6667H4.23307C4.69141 16.6667 5.06641 16.2917 5.06641 15.8334V15H15.0664V15.8334C15.0664 16.2917 15.4414 16.6667 15.8997 16.6667H16.7331C17.1914 16.6667 17.5664 16.2917 17.5664 15.8334V9.16671L15.8331 4.17504ZM5.77474 5.00004H14.3497L15.2497 7.59171H4.87474L5.77474 5.00004ZM15.8997 13.3334H4.23307V9.16671H15.8997V13.3334Z" fill="white"/>
<path d="M6.31641 12.5C7.00676 12.5 7.56641 11.9404 7.56641 11.25C7.56641 10.5597 7.00676 10 6.31641 10C5.62605 10 5.06641 10.5597 5.06641 11.25C5.06641 11.9404 5.62605 12.5 6.31641 12.5Z" fill="white"/>
<path d="M13.8164 12.5C14.5068 12.5 15.0664 11.9404 15.0664 11.25C15.0664 10.5597 14.5068 10 13.8164 10C13.126 10 12.5664 10.5597 12.5664 11.25C12.5664 11.9404 13.126 12.5 13.8164 12.5Z" fill="white"/>
</svg>
