<svg width="16" height="10" viewBox="0 0 16 10" fill="none" xmlns="http://www.w3.org/2000/svg">
<path d="M1.63441 4.092H5.81041V5.376H1.63441V4.092ZM1.75441 7.692H6.49441V9H0.194406V0.599999H6.32641V1.908H1.75441V7.692ZM11.8455 9.12C10.6935 9.12 9.78947 8.796 9.13347 8.148C8.48547 7.5 8.16147 6.564 8.16147 5.34V0.599999H9.72147V5.28C9.72147 6.144 9.90547 6.772 10.2735 7.164C10.6495 7.556 11.1775 7.752 11.8575 7.752C12.5375 7.752 13.0615 7.556 13.4295 7.164C13.7975 6.772 13.9815 6.144 13.9815 5.28V0.599999H15.5175V5.34C15.5175 6.564 15.1895 7.5 14.5335 8.148C13.8855 8.796 12.9895 9.12 11.8455 9.12Z" fill="white"/>
</svg>
