<svg width="20" height="20" viewBox="0 0 20 20" fill="none" xmlns="http://www.w3.org/2000/svg">
<path d="M10 12.458C10.472 12.458 10.8643 12.302 11.177 11.99C11.4897 11.6773 11.646 11.2847 11.646 10.812C11.646 10.34 11.4897 9.94767 11.177 9.635C10.8643 9.323 10.472 9.167 10 9.167C9.52801 9.167 9.13567 9.323 8.82301 9.635C8.51034 9.94767 8.35401 10.34 8.35401 10.812C8.35401 11.2847 8.51034 11.6773 8.82301 11.99C9.13567 12.302 9.52801 12.458 10 12.458ZM14.5 16.583L11.667 13.75C11.4303 13.8887 11.1697 13.9997 10.885 14.083C10.6003 14.1663 10.3053 14.208 10 14.208C9.06934 14.208 8.27067 13.8747 7.60401 13.208C6.93734 12.5413 6.60401 11.7427 6.60401 10.812C6.60401 9.882 6.93734 9.08367 7.60401 8.417C8.27067 7.75033 9.06934 7.417 10 7.417C10.9307 7.417 11.7293 7.75033 12.396 8.417C13.0627 9.08367 13.396 9.882 13.396 10.812C13.396 11.132 13.3543 11.4343 13.271 11.719C13.1877 12.0037 13.0697 12.264 12.917 12.5L14.917 14.542V7.271L11.688 3.417H5.08301V16.583H14.5ZM5.08301 18.333C4.59701 18.333 4.18401 18.163 3.84401 17.823C3.50334 17.4823 3.33301 17.069 3.33301 16.583V3.417C3.33301 2.931 3.50334 2.51767 3.84401 2.177C4.18401 1.837 4.59701 1.667 5.08301 1.667H12.5L16.667 6.667V16.625C16.667 17.111 16.4967 17.5173 16.156 17.844C15.816 18.17 15.403 18.333 14.917 18.333H5.08301Z" fill="black"/>
</svg>
