<svg width="21" height="20" viewBox="0 0 21 20" fill="none" xmlns="http://www.w3.org/2000/svg">
<path d="M7.56653 17.4997H4.23319C3.77486 17.4997 3.38236 17.3366 3.05569 17.0105C2.72958 16.6838 2.56653 16.2913 2.56653 15.833V4.16634C2.56653 3.70801 2.72958 3.31551 3.05569 2.98884C3.38236 2.66273 3.77486 2.49967 4.23319 2.49967H7.56653V4.16634H4.23319V15.833H7.56653V17.4997ZM9.23319 19.1663V0.833008H10.8999V19.1663H9.23319ZM15.8999 4.16634V2.49967C16.3582 2.49967 16.7507 2.66273 17.0774 2.98884C17.4035 3.31551 17.5665 3.70801 17.5665 4.16634H15.8999ZM15.8999 10.833V9.16634H17.5665V10.833H15.8999ZM15.8999 17.4997V15.833H17.5665C17.5665 16.2913 17.4035 16.6838 17.0774 17.0105C16.7507 17.3366 16.3582 17.4997 15.8999 17.4997ZM15.8999 7.49967V5.83301H17.5665V7.49967H15.8999ZM15.8999 14.1663V12.4997H17.5665V14.1663H15.8999ZM12.5665 17.4997V15.833H14.2332V17.4997H12.5665ZM12.5665 4.16634V2.49967H14.2332V4.16634H12.5665Z" fill="white"/>
</svg>
