<svg width="20" height="20" viewBox="0 0 20 20" fill="none" xmlns="http://www.w3.org/2000/svg">
<path d="M10.0661 1.66663C6.56608 1.66663 3.39941 4.34996 3.39941 8.49996C3.39941 11.2666 5.62441 14.5416 10.0661 18.3333C14.5077 14.5416 16.7327 11.2666 16.7327 8.49996C16.7327 4.34996 13.5661 1.66663 10.0661 1.66663ZM10.0661 16.1083C6.69108 13.025 5.06608 10.45 5.06608 8.49163C5.06608 5.47496 7.27441 3.33329 10.0661 3.33329C12.8577 3.33329 15.0661 5.47496 15.0661 8.49996C15.0661 10.45 13.4411 13.0333 10.0661 16.1083Z" fill="white"/>
<path d="M10.8994 4.99996H9.23275V9.16663H10.8994V4.99996Z" fill="white"/>
<path d="M10.8994 10.8333H9.23275V12.5H10.8994V10.8333Z" fill="white"/>
</svg>
