<svg width="16" height="16" viewBox="0 0 16 16" fill="none" xmlns="http://www.w3.org/2000/svg">
<path d="M6.1168 14.6664L5.8664 12.5664C5.75547 12.4998 5.63334 12.4278 5.5 12.3504C5.36667 12.2726 5.24454 12.2003 5.1336 12.1336L3.1832 12.9504L1.3 9.70002L2.9664 8.43362V7.56642L1.3 6.30002L3.1832 3.04962L5.1336 3.86642C5.24454 3.79975 5.36667 3.72775 5.5 3.65042C5.63334 3.57255 5.75547 3.50028 5.8664 3.43362L6.1168 1.33362H9.8832L10.1336 3.43362C10.2445 3.50028 10.3667 3.57255 10.5 3.65042C10.6333 3.72775 10.7555 3.79975 10.8664 3.86642L12.8168 3.04962L14.7 6.30002L13.0496 7.56642V8.43362L14.7 9.70002L12.8168 12.9504L10.8664 12.1336C10.7555 12.2003 10.6333 12.2726 10.5 12.3504C10.3667 12.4278 10.2445 12.4998 10.1336 12.5664L9.8832 14.6664H6.1168ZM8 10.3832C8.65547 10.3832 9.21654 10.1499 9.6832 9.68322C10.1499 9.21655 10.3832 8.65549 10.3832 8.00002C10.3832 7.34455 10.1499 6.78349 9.6832 6.31682C9.21654 5.85015 8.65547 5.61682 8 5.61682C7.34454 5.61682 6.78347 5.85015 6.3168 6.31682C5.85014 6.78349 5.6168 7.34455 5.6168 8.00002C5.6168 8.65549 5.85014 9.21655 6.3168 9.68322C6.78347 10.1499 7.34454 10.3832 8 10.3832Z" fill="#4472C4"/>
</svg>
