<svg width="20" height="20" viewBox="0 0 20 20" fill="none" xmlns="http://www.w3.org/2000/svg">
<path d="M18.4001 5.83329V4.16663H15.9001V1.66663H14.2334V4.16663H10.9001V1.66663H9.2334V4.16663H5.90006V1.66663H4.2334V4.16663H1.7334V5.83329H4.2334V9.16663H1.7334V10.8333H4.2334V14.1666H1.7334V15.8333H4.2334V18.3333H5.90006V15.8333H9.2334V18.3333H10.9001V15.8333H14.2334V18.3333H15.9001V15.8333H18.4001V14.1666H15.9001V10.8333H18.4001V9.16663H15.9001V5.83329H18.4001ZM5.90006 5.83329H9.2334V9.16663H5.90006V5.83329ZM5.90006 14.1666V10.8333H9.2334V14.1666H5.90006ZM14.2334 14.1666H10.9001V10.8333H14.2334V14.1666ZM14.2334 9.16663H10.9001V5.83329H14.2334V9.16663Z" fill="white"/>
</svg>
