<svg width="13" height="16" viewBox="0 0 13 16" fill="none" xmlns="http://www.w3.org/2000/svg">
<path d="M5.86641 11.6H7.06641V7.6H5.86641V11.6ZM6.46641 6.4C6.63281 6.4 6.77441 6.3416 6.89121 6.2248C7.00801 6.108 7.06641 5.9664 7.06641 5.8C7.06641 5.6336 7.00801 5.492 6.89121 5.3752C6.77441 5.2584 6.63281 5.2 6.46641 5.2C6.30001 5.2 6.15841 5.2584 6.04161 5.3752C5.92481 5.492 5.86641 5.6336 5.86641 5.8C5.86641 5.9664 5.92481 6.108 6.04161 6.2248C6.15841 6.3416 6.30001 6.4 6.46641 6.4ZM6.46641 14.8C5.58854 14.8 4.76081 14.6333 3.98321 14.3C3.20561 13.9667 2.52507 13.5083 1.94161 12.9248C1.35814 12.3413 0.89974 11.6608 0.566406 10.8832C0.233073 10.1056 0.0664062 9.27787 0.0664062 8.4C0.0664062 7.51093 0.233073 6.68027 0.566406 5.908C0.89974 5.13627 1.35814 4.45867 1.94161 3.8752C2.52507 3.29173 3.20561 2.83333 3.98321 2.5C4.76081 2.16667 5.58854 2 6.46641 2C7.35547 2 8.18614 2.16667 8.95841 2.5C9.73014 2.83333 10.4077 3.29173 10.9912 3.8752C11.5747 4.45867 12.0331 5.13627 12.3664 5.908C12.6997 6.68027 12.8664 7.51093 12.8664 8.4C12.8664 9.27787 12.6997 10.1056 12.3664 10.8832C12.0331 11.6608 11.5747 12.3413 10.9912 12.9248C10.4077 13.5083 9.73014 13.9667 8.95841 14.3C8.18614 14.6333 7.35547 14.8 6.46641 14.8ZM6.46641 13.6C7.91067 13.6 9.13841 13.0944 10.1496 12.0832C11.1608 11.072 11.6664 9.84427 11.6664 8.4C11.6664 6.95573 11.1608 5.728 10.1496 4.7168C9.13841 3.7056 7.91067 3.2 6.46641 3.2C5.02214 3.2 3.79441 3.7056 2.78321 4.7168C1.77201 5.728 1.26641 6.95573 1.26641 8.4C1.26641 9.84427 1.77201 11.072 2.78321 12.0832C3.79441 13.0944 5.02214 13.6 6.46641 13.6Z" fill="#666666"/>
</svg>
