<svg width="24" height="24" viewBox="0 0 24 24" fill="none" xmlns="http://www.w3.org/2000/svg">
<rect width="24" height="24" rx="12" fill="black"/>
<rect width="24" height="24" rx="12" fill="black" fill-opacity="0.2"/>
<path d="M10.1429 13.8571V10.1429H13.8571V13.8571H10.1429ZM11.5357 12.4643H12.4643V11.5357H11.5357V12.4643ZM9.67857 18.5V16.6429H8.75C8.3761 16.6429 8.05048 16.5042 7.77314 16.2269C7.49581 15.9495 7.35714 15.6239 7.35714 15.25V14.3214H5.5V12.9286H7.35714V11.0714H5.5V9.67857H7.35714V8.75C7.35714 8.3761 7.49581 8.05048 7.77314 7.77314C8.05048 7.49581 8.3761 7.35714 8.75 7.35714H9.67857V5.5H11.0714V7.35714H12.9286V5.5H14.3214V7.35714H15.25C15.6239 7.35714 15.9495 7.49581 16.2269 7.77314C16.5042 8.05048 16.6429 8.3761 16.6429 8.75V9.67857H18.5V11.0714H16.6429V12.9286H18.5V14.3214H16.6429V15.25C16.6429 15.6239 16.5042 15.9495 16.2269 16.2269C15.9495 16.5042 15.6239 16.6429 15.25 16.6429H14.3214V18.5H12.9286V16.6429H11.0714V18.5H9.67857ZM15.25 15.25V8.75H8.75V15.25H15.25Z" fill="white"/>
</svg>
