<svg width="20" height="20" viewBox="0 0 20 20" fill="none" xmlns="http://www.w3.org/2000/svg">
<path d="M9.99984 18.3333C8.86095 18.3333 7.78456 18.1144 6.77067 17.6766C5.75678 17.2394 4.8715 16.6422 4.11484 15.885C3.35762 15.1283 2.76039 14.243 2.32317 13.2291C1.88539 12.2152 1.6665 11.1388 1.6665 9.99996C1.6665 8.84718 1.88539 7.76746 2.32317 6.76079C2.76039 5.75357 3.35762 4.87163 4.11484 4.11496C4.8715 3.35774 5.75678 2.76024 6.77067 2.32246C7.78456 1.88524 8.86095 1.66663 9.99984 1.66663C11.1526 1.66663 12.2323 1.88524 13.239 2.32246C14.2462 2.76024 15.1282 3.35774 15.8848 4.11496C16.6421 4.87163 17.2393 5.75357 17.6765 6.76079C18.1143 7.76746 18.3332 8.84718 18.3332 9.99996C18.3332 11.1388 18.1143 12.2152 17.6765 13.2291C17.2393 14.243 16.6421 15.1283 15.8848 15.885C15.1282 16.6422 14.2462 17.2394 13.239 17.6766C12.2323 18.1144 11.1526 18.3333 9.99984 18.3333ZM9.99984 16.625C10.3609 16.125 10.6734 15.6041 10.9373 15.0625C11.2012 14.5208 11.4165 13.9444 11.5832 13.3333H8.4165C8.58317 13.9444 8.79845 14.5208 9.06234 15.0625C9.32623 15.6041 9.63873 16.125 9.99984 16.625ZM7.83317 16.2916C7.58317 15.8333 7.36456 15.3575 7.17734 14.8641C6.98956 14.3713 6.83317 13.8611 6.70817 13.3333H4.24984C4.65262 14.0277 5.15595 14.6319 5.75984 15.1458C6.36428 15.6597 7.05539 16.0416 7.83317 16.2916ZM12.1665 16.2916C12.9443 16.0416 13.6351 15.6597 14.239 15.1458C14.8434 14.6319 15.3471 14.0277 15.7498 13.3333H13.2915C13.1665 13.8611 13.0104 14.3713 12.8232 14.8641C12.6354 15.3575 12.4165 15.8333 12.1665 16.2916ZM3.5415 11.6666H6.37484C6.33317 11.3888 6.30178 11.1144 6.28067 10.8433C6.26012 10.5727 6.24984 10.2916 6.24984 9.99996C6.24984 9.70829 6.26012 9.42718 6.28067 9.15663C6.30178 8.88552 6.33317 8.61107 6.37484 8.33329H3.5415C3.47206 8.61107 3.41984 8.88552 3.38484 9.15663C3.35039 9.42718 3.33317 9.70829 3.33317 9.99996C3.33317 10.2916 3.35039 10.5727 3.38484 10.8433C3.41984 11.1144 3.47206 11.3888 3.5415 11.6666ZM8.0415 11.6666H11.9582C11.9998 11.3888 12.0312 11.1144 12.0523 10.8433C12.0729 10.5727 12.0832 10.2916 12.0832 9.99996C12.0832 9.70829 12.0729 9.42718 12.0523 9.15663C12.0312 8.88552 11.9998 8.61107 11.9582 8.33329H8.0415C7.99984 8.61107 7.96873 8.88552 7.94817 9.15663C7.92706 9.42718 7.9165 9.70829 7.9165 9.99996C7.9165 10.2916 7.92706 10.5727 7.94817 10.8433C7.96873 11.1144 7.99984 11.3888 8.0415 11.6666ZM13.6248 11.6666H16.4582C16.5276 11.3888 16.5798 11.1144 16.6148 10.8433C16.6493 10.5727 16.6665 10.2916 16.6665 9.99996C16.6665 9.70829 16.6493 9.42718 16.6148 9.15663C16.5798 8.88552 16.5276 8.61107 16.4582 8.33329H13.6248C13.6665 8.61107 13.6976 8.88552 13.7182 9.15663C13.7393 9.42718 13.7498 9.70829 13.7498 9.99996C13.7498 10.2916 13.7393 10.5727 13.7182 10.8433C13.6976 11.1144 13.6665 11.3888 13.6248 11.6666ZM13.2915 6.66663H15.7498C15.3471 5.97218 14.8434 5.36801 14.239 4.85413C13.6351 4.34024 12.9443 3.95829 12.1665 3.70829C12.4165 4.16663 12.6354 4.64218 12.8232 5.13496C13.0104 5.62829 13.1665 6.13885 13.2915 6.66663ZM8.4165 6.66663H11.5832C11.4165 6.05552 11.2012 5.47913 10.9373 4.93746C10.6734 4.39579 10.3609 3.87496 9.99984 3.37496C9.63873 3.87496 9.32623 4.39579 9.06234 4.93746C8.79845 5.47913 8.58317 6.05552 8.4165 6.66663ZM4.24984 6.66663H6.70817C6.83317 6.13885 6.98956 5.62829 7.17734 5.13496C7.36456 4.64218 7.58317 4.16663 7.83317 3.70829C7.05539 3.95829 6.36428 4.34024 5.75984 4.85413C5.15595 5.36801 4.65262 5.97218 4.24984 6.66663Z" fill="black"/>
</svg>
