<svg width="64" height="65" viewBox="0 0 64 65" fill="none" xmlns="http://www.w3.org/2000/svg">
<path d="M7.93333 50.5666V47.5H13.4667V17.4333C13.4667 16.4555 13.8333 15.5888 14.5667 14.8333C15.3 14.0777 16.1778 13.7 17.2 13.7H54.8V15.7666H17.2C16.7111 15.7666 16.3111 15.9222 16 16.2333C15.6889 16.5444 15.5333 16.9444 15.5333 17.4333V47.5H30V50.5666H7.93333ZM40.8667 50.5666C40.2889 50.5666 39.8 50.3444 39.4 49.8999C39 49.4555 38.8 48.9444 38.8 48.3666V24.5666C38.8 24.0333 39 23.5666 39.4 23.1666C39.8 22.7666 40.2889 22.5666 40.8667 22.5666H53.6667C54.2889 22.5666 54.8444 22.7555 55.3333 23.1333C55.8222 23.5111 56.0667 23.9888 56.0667 24.5666V48.3666C56.0667 48.9444 55.8333 49.4555 55.3667 49.8999C54.9 50.3444 54.3333 50.5666 53.6667 50.5666H40.8667ZM40.8667 47.5H54V24.6333H40.8667V47.5Z" fill="black"/>
</svg>
