<svg width="64" height="65" viewBox="0 0 64 65" fill="none" xmlns="http://www.w3.org/2000/svg">
<path d="M27.2 37.3V27.7H36.8V37.3H27.2ZM29.2667 35.2334H34.7333V29.7667H29.2667V35.2334ZM25.3333 52.6334V48.5H19.6667C18.6444 48.5 17.7778 48.1445 17.0667 47.4334C16.3556 46.7223 16 45.8556 16 44.8334V39.1667H11.8667V37.1H16V27.7667H11.8667V25.7H16V20.1C16 19.0778 16.3556 18.2 17.0667 17.4667C17.7778 16.7334 18.6444 16.3667 19.6667 16.3667H25.3333V12.3667H27.4V16.3667H36.7333V12.3667H38.8V16.3667H44.4C45.4222 16.3667 46.3 16.7334 47.0333 17.4667C47.7667 18.2 48.1333 19.0778 48.1333 20.1V25.7H52.1333V27.7667H48.1333V37.1H52.1333V39.1667H48.1333V44.8334C48.1333 45.8556 47.7667 46.7223 47.0333 47.4334C46.3 48.1445 45.4222 48.5 44.4 48.5H38.8V52.6334H36.7333V48.5H27.4V52.6334H25.3333ZM44.4 46.4334C44.8444 46.4334 45.2333 46.2667 45.5667 45.9334C45.9 45.6 46.0667 45.2334 46.0667 44.8334V20.1C46.0667 19.6556 45.9 19.2667 45.5667 18.9334C45.2333 18.6 44.8444 18.4334 44.4 18.4334H19.6667C19.2667 18.4334 18.9 18.6 18.5667 18.9334C18.2333 19.2667 18.0667 19.6556 18.0667 20.1V44.8334C18.0667 45.2334 18.2333 45.6 18.5667 45.9334C18.9 46.2667 19.2667 46.4334 19.6667 46.4334H44.4Z" fill="black"/>
</svg>
