<svg width="64" height="64" viewBox="0 0 64 64" fill="none" xmlns="http://www.w3.org/2000/svg">
<path d="M32 30.6667C33.0222 30.6667 33.8889 30.3111 34.6 29.6C35.3111 28.8889 35.6667 28.0222 35.6667 27C35.6667 25.9778 35.3111 25.1111 34.6 24.4C33.8889 23.6889 33.0222 23.3333 32 23.3333C30.9778 23.3333 30.1111 23.6889 29.4 24.4C28.6889 25.1111 28.3333 25.9778 28.3333 27C28.3333 28.0222 28.6889 28.8889 29.4 29.6C30.1111 30.3111 30.9778 30.6667 32 30.6667ZM32 55.2C37.7778 50.1333 42.2111 45.1111 45.3 40.1333C48.3889 35.1556 49.9333 30.9556 49.9333 27.5333C49.9333 22.1111 48.2111 17.6778 44.7667 14.2333C41.3222 10.7889 37.0667 9.06667 32 9.06667C26.9333 9.06667 22.6778 10.7889 19.2333 14.2333C15.7889 17.6778 14.0667 22.1111 14.0667 27.5333C14.0667 30.9556 15.6333 35.1556 18.7667 40.1333C21.9 45.1111 26.3111 50.1333 32 55.2ZM32 58C25.2444 52 20.2222 46.4444 16.9333 41.3333C13.6444 36.2222 12 31.6222 12 27.5333C12 21.2667 14.0111 16.2778 18.0333 12.5667C22.0556 8.85556 26.7111 7 32 7C37.2889 7 41.9444 8.85556 45.9667 12.5667C49.9889 16.2778 52 21.2667 52 27.5333C52 31.6222 50.3556 36.2222 47.0667 41.3333C43.7778 46.4444 38.7556 52 32 58Z" fill="#333333"/>
</svg>
