<svg width="20" height="20" viewBox="0 0 20 20" fill="none" xmlns="http://www.w3.org/2000/svg">
<path d="M15.8327 18.3333C15.1382 18.3333 14.548 18.0902 14.0618 17.6041C13.5757 17.118 13.3327 16.5277 13.3327 15.8333C13.3327 15.2777 13.4888 14.7883 13.801 14.365C14.1138 13.9411 14.5132 13.6458 14.9993 13.4791V6.52079C14.5132 6.35413 14.1138 6.05885 13.801 5.63496C13.4888 5.21163 13.3327 4.72218 13.3327 4.16663C13.3327 3.47218 13.5757 2.8819 14.0618 2.39579C14.548 1.90968 15.1382 1.66663 15.8327 1.66663C16.5271 1.66663 17.1174 1.90968 17.6035 2.39579C18.0896 2.8819 18.3327 3.47218 18.3327 4.16663C18.3327 4.72218 18.1766 5.21163 17.8643 5.63496C17.5516 6.05885 17.1521 6.35413 16.666 6.52079V13.4791C17.1521 13.6597 17.5516 13.9616 17.8643 14.385C18.1766 14.8088 18.3327 15.2916 18.3327 15.8333C18.3327 16.5277 18.0896 17.118 17.6035 17.6041C17.1174 18.0902 16.5271 18.3333 15.8327 18.3333ZM15.8327 16.6666C16.0688 16.6666 16.2666 16.5866 16.426 16.4266C16.586 16.2672 16.666 16.0694 16.666 15.8333C16.666 15.5972 16.586 15.3994 16.426 15.24C16.2666 15.08 16.0688 15 15.8327 15C15.5966 15 15.3988 15.08 15.2393 15.24C15.0793 15.3994 14.9993 15.5972 14.9993 15.8333C14.9993 16.0694 15.0793 16.2672 15.2393 16.4266C15.3988 16.5866 15.5966 16.6666 15.8327 16.6666ZM15.8327 4.99996C16.0688 4.99996 16.2666 4.92024 16.426 4.76079C16.586 4.60079 16.666 4.40274 16.666 4.16663C16.666 3.93051 16.586 3.73246 16.426 3.57246C16.2666 3.41302 16.0688 3.33329 15.8327 3.33329C15.5966 3.33329 15.3988 3.41302 15.2393 3.57246C15.0793 3.73246 14.9993 3.93051 14.9993 4.16663C14.9993 4.40274 15.0793 4.60079 15.2393 4.76079C15.3988 4.92024 15.5966 4.99996 15.8327 4.99996Z" fill="#2F80ED"/>
<path d="M4.16602 18.3333C3.47157 18.3333 2.88129 18.0902 2.39518 17.6041C1.90907 17.118 1.66602 16.5277 1.66602 15.8333C1.66602 15.2777 1.82213 14.7883 2.13435 14.365C2.44713 13.9411 2.84657 13.6458 3.33268 13.4791V6.52079C2.84657 6.35413 2.44713 6.05885 2.13435 5.63496C1.82213 5.21163 1.66602 4.72218 1.66602 4.16663C1.66602 3.47218 1.90907 2.8819 2.39518 2.39579C2.88129 1.90968 3.47157 1.66663 4.16602 1.66663C4.86046 1.66663 5.45074 1.90968 5.93685 2.39579C6.42296 2.8819 6.66602 3.47218 6.66602 4.16663C6.66602 4.72218 6.5099 5.21163 6.19768 5.63496C5.8849 6.05885 5.48546 6.35413 4.99935 6.52079V13.4791C5.48546 13.6597 5.8849 13.9616 6.19768 14.385C6.5099 14.8088 6.66602 15.2916 6.66602 15.8333C6.66602 16.5277 6.42296 17.118 5.93685 17.6041C5.45074 18.0902 4.86046 18.3333 4.16602 18.3333ZM4.16602 16.6666C4.40213 16.6666 4.5999 16.5866 4.75935 16.4266C4.91935 16.2672 4.99935 16.0694 4.99935 15.8333C4.99935 15.5972 4.91935 15.3994 4.75935 15.24C4.5999 15.08 4.40213 15 4.16602 15C3.9299 15 3.73213 15.08 3.57268 15.24C3.41268 15.3994 3.33268 15.5972 3.33268 15.8333C3.33268 16.0694 3.41268 16.2672 3.57268 16.4266C3.73213 16.5866 3.9299 16.6666 4.16602 16.6666ZM4.16602 4.99996C4.40213 4.99996 4.5999 4.92024 4.75935 4.76079C4.91935 4.60079 4.99935 4.40274 4.99935 4.16663C4.99935 3.93051 4.91935 3.73246 4.75935 3.57246C4.5999 3.41302 4.40213 3.33329 4.16602 3.33329C3.9299 3.33329 3.73213 3.41302 3.57268 3.57246C3.41268 3.73246 3.33268 3.93051 3.33268 4.16663C3.33268 4.40274 3.41268 4.60079 3.57268 4.76079C3.73213 4.92024 3.9299 4.99996 4.16602 4.99996Z" fill="#2F80ED"/>
<path d="M1.66732 15.8333C1.66732 15.1388 1.91037 14.5486 2.39648 14.0625C2.88259 13.5763 3.47287 13.3333 4.16732 13.3333C4.72287 13.3333 5.21232 13.4894 5.63565 13.8016C6.05954 14.1144 6.35482 14.5138 6.52148 15L13.4798 15C13.6465 14.5138 13.9418 14.1144 14.3657 13.8016C14.789 13.4894 15.2784 13.3333 15.834 13.3333C16.5284 13.3333 17.1187 13.5763 17.6048 14.0625C18.0909 14.5486 18.334 15.1388 18.334 15.8333C18.334 16.5277 18.0909 17.118 17.6048 17.6041C17.1187 18.0902 16.5284 18.3333 15.834 18.3333C15.2784 18.3333 14.789 18.1772 14.3657 17.865C13.9418 17.5522 13.6465 17.1527 13.4798 16.6666L6.52148 16.6666C6.34093 17.1527 6.03898 17.5522 5.61565 17.865C5.19176 18.1772 4.70898 18.3333 4.16732 18.3333C3.47287 18.3333 2.88259 18.0902 2.39648 17.6041C1.91037 17.118 1.66732 16.5277 1.66732 15.8333ZM3.33398 15.8333C3.33398 16.0694 3.41398 16.2672 3.57398 16.4266C3.73343 16.5866 3.93121 16.6666 4.16732 16.6666C4.40343 16.6666 4.60121 16.5866 4.76065 16.4266C4.92065 16.2672 5.00065 16.0694 5.00065 15.8333C5.00065 15.5972 4.92065 15.3994 4.76065 15.24C4.60121 15.08 4.40343 15 4.16732 15C3.93121 15 3.73343 15.08 3.57398 15.24C3.41398 15.3994 3.33398 15.5972 3.33398 15.8333ZM15.0007 15.8333C15.0007 16.0694 15.0804 16.2672 15.2398 16.4266C15.3998 16.5866 15.5979 16.6666 15.834 16.6666C16.0701 16.6666 16.2682 16.5866 16.4282 16.4266C16.5876 16.2672 16.6673 16.0694 16.6673 15.8333C16.6673 15.5972 16.5876 15.3994 16.4282 15.24C16.2682 15.08 16.0701 15 15.834 15C15.5979 15 15.3998 15.08 15.2398 15.24C15.0804 15.3994 15.0007 15.5972 15.0007 15.8333Z" fill="#2F80ED"/>
<path d="M1.66732 4.16663C1.66732 3.47218 1.91037 2.8819 2.39648 2.39579C2.88259 1.90968 3.47287 1.66663 4.16732 1.66663C4.72287 1.66663 5.21232 1.82274 5.63565 2.13496C6.05954 2.44774 6.35482 2.84718 6.52148 3.33329L13.4798 3.33329C13.6465 2.84718 13.9418 2.44774 14.3657 2.13496C14.789 1.82274 15.2784 1.66663 15.834 1.66663C16.5284 1.66663 17.1187 1.90968 17.6048 2.39579C18.0909 2.8819 18.334 3.47218 18.334 4.16663C18.334 4.86107 18.0909 5.45135 17.6048 5.93746C17.1187 6.42357 16.5284 6.66663 15.834 6.66663C15.2784 6.66663 14.789 6.51051 14.3657 6.19829C13.9418 5.88551 13.6465 5.48607 13.4798 4.99996L6.52148 4.99996C6.34093 5.48607 6.03898 5.88551 5.61565 6.19829C5.19176 6.51051 4.70898 6.66663 4.16732 6.66663C3.47287 6.66663 2.88259 6.42357 2.39648 5.93746C1.91037 5.45135 1.66732 4.86107 1.66732 4.16663ZM3.33398 4.16663C3.33398 4.40274 3.41398 4.60051 3.57398 4.75996C3.73343 4.91996 3.93121 4.99996 4.16732 4.99996C4.40343 4.99996 4.60121 4.91996 4.76065 4.75996C4.92065 4.60051 5.00065 4.40274 5.00065 4.16663C5.00065 3.93051 4.92065 3.73274 4.76065 3.57329C4.60121 3.41329 4.40343 3.33329 4.16732 3.33329C3.93121 3.33329 3.73343 3.41329 3.57398 3.57329C3.41398 3.73274 3.33398 3.93051 3.33398 4.16663ZM15.0007 4.16663C15.0007 4.40274 15.0804 4.60051 15.2398 4.75996C15.3998 4.91996 15.5979 4.99996 15.834 4.99996C16.0701 4.99996 16.2682 4.91996 16.4282 4.75996C16.5876 4.60051 16.6673 4.40274 16.6673 4.16663C16.6673 3.93051 16.5876 3.73274 16.4282 3.57329C16.2682 3.41329 16.0701 3.33329 15.834 3.33329C15.5979 3.33329 15.3998 3.41329 15.2398 3.57329C15.0804 3.73274 15.0007 3.93051 15.0007 4.16663Z" fill="#2F80ED"/>
</svg>
