<svg width="20" height="20" viewBox="0 0 20 20" fill="none" xmlns="http://www.w3.org/2000/svg">
<path d="M10.0744 13.3333C9.84941 13.3333 9.64108 13.25 9.48275 13.0916C9.31608 12.925 9.24108 12.7333 9.24108 12.5C9.23275 12.0416 9.59941 11.675 10.0577 11.6666C10.0661 11.6666 10.0661 11.6666 10.0744 11.6666C10.3077 11.6666 10.4994 11.75 10.6661 11.9083C10.8161 12.0666 10.8994 12.2666 10.8994 12.4916C10.8994 12.7166 10.8161 12.9166 10.6577 13.0833C10.4994 13.25 10.2994 13.3333 10.0744 13.3333ZM9.34108 10.2833C9.34108 9.90829 9.42441 9.58329 9.58275 9.31663C9.74108 9.04163 10.0244 8.73329 10.4161 8.38329C10.6494 8.17496 10.8161 7.99163 10.9244 7.83329C11.0327 7.67496 11.0827 7.49996 11.0827 7.29996C11.0827 7.05829 10.9911 6.85829 10.8161 6.68329C10.6411 6.51663 10.3994 6.43329 10.1077 6.43329C9.79941 6.43329 9.49108 6.51663 9.30775 6.68329C9.13275 6.84996 8.97441 7.05829 8.97441 7.49996H7.56608C7.56608 6.65829 7.94941 6.05829 8.37441 5.65829C8.84108 5.23329 9.44108 4.99996 10.0661 4.99996C10.5577 4.99996 10.9911 5.09996 11.3744 5.29163C11.7577 5.48329 12.0327 5.74996 12.2494 6.09163C12.4661 6.43329 12.5661 6.80829 12.5661 7.21663C12.5661 7.62496 12.4827 7.96663 12.3077 8.25829C12.1327 8.54996 11.9077 8.84996 11.5661 9.16663C11.2994 9.41663 11.1244 9.63329 11.0244 9.80829C10.9244 9.98329 10.8744 10.2166 10.8744 10.4833V10.8333H9.33275V10.2833H9.34108ZM15.0661 8.49996C15.0661 5.47496 12.8577 3.33329 10.0661 3.33329C7.27441 3.33329 5.06608 5.47496 5.06608 8.49996C5.06608 10.45 6.69108 13.0333 10.0661 16.1166C13.4411 13.0333 15.0661 10.45 15.0661 8.49996ZM10.0661 1.66663C13.5661 1.66663 16.7327 4.34996 16.7327 8.49996C16.7327 11.2666 14.5077 14.5416 10.0661 18.3333C5.62441 14.5416 3.39941 11.2666 3.39941 8.49996C3.39941 4.34996 6.56608 1.66663 10.0661 1.66663Z" fill="white"/>
</svg>
