<svg width="20" height="20" viewBox="0 0 20 20" fill="none" xmlns="http://www.w3.org/2000/svg">
<path d="M7.99805 13H9.49805V7H7.99805V13ZM10.998 13L15.498 10L10.998 7V13ZM10.998 18C9.90071 18 8.86605 17.7917 7.89405 17.375C6.92205 16.9583 6.07138 16.3853 5.34205 15.656C4.61271 14.9267 4.03971 14.076 3.62305 13.104C3.20638 12.132 2.99805 11.0973 2.99805 10C2.99805 8.88867 3.20638 7.85033 3.62305 6.885C4.03971 5.92033 4.61271 5.07333 5.34205 4.344C6.07138 3.61467 6.92205 3.04167 7.89405 2.625C8.86605 2.20833 9.90071 2 10.998 2C12.1094 2 13.1477 2.20833 14.113 2.625C15.0777 3.04167 15.9247 3.61467 16.654 4.344C17.3834 5.07333 17.9564 5.92033 18.373 6.885C18.7897 7.85033 18.998 8.88867 18.998 10C18.998 11.0973 18.7897 12.132 18.373 13.104C17.9564 14.076 17.3834 14.9267 16.654 15.656C15.9247 16.3853 15.0777 16.9583 14.113 17.375C13.1477 17.7917 12.1094 18 10.998 18ZM10.998 16.5C12.8034 16.5 14.338 15.868 15.602 14.604C16.866 13.34 17.498 11.8053 17.498 10C17.498 8.19467 16.866 6.66 15.602 5.396C14.338 4.132 12.8034 3.5 10.998 3.5C9.19271 3.5 7.65805 4.132 6.39405 5.396C5.13005 6.66 4.49805 8.19467 4.49805 10C4.49805 11.8053 5.13005 13.34 6.39405 14.604C7.65805 15.868 9.19271 16.5 10.998 16.5Z" fill="black"/>
</svg>
