<svg width="4" height="14" viewBox="0 0 4 14" fill="none"
  xmlns="http://www.w3.org/2000/svg">
  <path d="M2.00004 13.6666C1.54171 13.6666 1.14949 13.5035 0.823374 13.1774C0.496708 12.8508 0.333374 12.4583 0.333374 11.9999C0.333374 11.5416 0.496708 11.1491 0.823374 10.8224C1.14949 10.4963 1.54171 10.3333 2.00004 10.3333C2.45837 10.3333 2.85087 10.4963 3.17754 10.8224C3.50365 11.1491 3.66671 11.5416 3.66671 11.9999C3.66671 12.4583 3.50365 12.8508 3.17754 13.1774C2.85087 13.5035 2.45837 13.6666 2.00004 13.6666ZM2.00004 8.66658C1.54171 8.66658 1.14949 8.50325 0.823374 8.17658C0.496708 7.85047 0.333374 7.45825 0.333374 6.99992C0.333374 6.54158 0.496708 6.14909 0.823374 5.82242C1.14949 5.49631 1.54171 5.33325 2.00004 5.33325C2.45837 5.33325 2.85087 5.49631 3.17754 5.82242C3.50365 6.14909 3.66671 6.54158 3.66671 6.99992C3.66671 7.45825 3.50365 7.85047 3.17754 8.17658C2.85087 8.50325 2.45837 8.66658 2.00004 8.66658ZM2.00004 3.66659C1.54171 3.66659 1.14949 3.50325 0.823374 3.17659C0.496708 2.85047 0.333374 2.45825 0.333374 1.99992C0.333374 1.54159 0.496708 1.14936 0.823374 0.823252C1.14949 0.496585 1.54171 0.333252 2.00004 0.333252C2.45837 0.333252 2.85087 0.496585 3.17754 0.823252C3.50365 1.14936 3.66671 1.54159 3.66671 1.99992C3.66671 2.45825 3.50365 2.85047 3.17754 3.17659C2.85087 3.50325 2.45837 3.66659 2.00004 3.66659Z" fill="currentColor"/>
  <path d="M2.00004 13.6666C1.54171 13.6666 1.14949 13.5035 0.823374 13.1774C0.496708 12.8508 0.333374 12.4583 0.333374 11.9999C0.333374 11.5416 0.496708 11.1491 0.823374 10.8224C1.14949 10.4963 1.54171 10.3333 2.00004 10.3333C2.45837 10.3333 2.85087 10.4963 3.17754 10.8224C3.50365 11.1491 3.66671 11.5416 3.66671 11.9999C3.66671 12.4583 3.50365 12.8508 3.17754 13.1774C2.85087 13.5035 2.45837 13.6666 2.00004 13.6666ZM2.00004 8.66658C1.54171 8.66658 1.14949 8.50325 0.823374 8.17658C0.496708 7.85047 0.333374 7.45825 0.333374 6.99992C0.333374 6.54158 0.496708 6.14909 0.823374 5.82242C1.14949 5.49631 1.54171 5.33325 2.00004 5.33325C2.45837 5.33325 2.85087 5.49631 3.17754 5.82242C3.50365 6.14909 3.66671 6.54158 3.66671 6.99992C3.66671 7.45825 3.50365 7.85047 3.17754 8.17658C2.85087 8.50325 2.45837 8.66658 2.00004 8.66658ZM2.00004 3.66659C1.54171 3.66659 1.14949 3.50325 0.823374 3.17659C0.496708 2.85047 0.333374 2.45825 0.333374 1.99992C0.333374 1.54159 0.496708 1.14936 0.823374 0.823252C1.14949 0.496585 1.54171 0.333252 2.00004 0.333252C2.45837 0.333252 2.85087 0.496585 3.17754 0.823252C3.50365 1.14936 3.66671 1.54159 3.66671 1.99992C3.66671 2.45825 3.50365 2.85047 3.17754 3.17659C2.85087 3.50325 2.45837 3.66659 2.00004 3.66659Z" fill="currentColor" fill-opacity="0.2"/>
</svg>
