<svg width="20" height="20" viewBox="0 0 20 20" fill="none" xmlns="http://www.w3.org/2000/svg">
<path d="M10 3.33329C11.6083 3.33329 14.1667 4.49996 14.1667 7.62496C14.1667 9.42496 12.7333 11.5166 10 13.725C7.26667 11.5166 5.83333 9.41663 5.83333 7.62496C5.83333 4.49996 8.39167 3.33329 10 3.33329ZM10 1.66663C7.275 1.66663 4.16667 3.71663 4.16667 7.62496C4.16667 10.225 6.10833 12.9666 10 15.8333C13.8917 12.9666 15.8333 10.225 15.8333 7.62496C15.8333 3.71663 12.725 1.66663 10 1.66663Z" fill="black"/>
<path d="M10 3.33329C11.6083 3.33329 14.1667 4.49996 14.1667 7.62496C14.1667 9.42496 12.7333 11.5166 10 13.725C7.26667 11.5166 5.83333 9.41663 5.83333 7.62496C5.83333 4.49996 8.39167 3.33329 10 3.33329ZM10 1.66663C7.275 1.66663 4.16667 3.71663 4.16667 7.62496C4.16667 10.225 6.10833 12.9666 10 15.8333C13.8917 12.9666 15.8333 10.225 15.8333 7.62496C15.8333 3.71663 12.725 1.66663 10 1.66663Z" fill="black" fill-opacity="0.2"/>
<path d="M10 5.83329C9.08333 5.83329 8.33333 6.58329 8.33333 7.49996C8.33333 8.41663 9.08333 9.16663 10 9.16663C10.442 9.16663 10.866 8.99103 11.1785 8.67847C11.4911 8.36591 11.6667 7.94199 11.6667 7.49996C11.6667 7.05793 11.4911 6.63401 11.1785 6.32145C10.866 6.00889 10.442 5.83329 10 5.83329ZM4.16667 16.6666H15.8333V18.3333H4.16667V16.6666Z" fill="black"/>
<path d="M10 5.83329C9.08333 5.83329 8.33333 6.58329 8.33333 7.49996C8.33333 8.41663 9.08333 9.16663 10 9.16663C10.442 9.16663 10.866 8.99103 11.1785 8.67847C11.4911 8.36591 11.6667 7.94199 11.6667 7.49996C11.6667 7.05793 11.4911 6.63401 11.1785 6.32145C10.866 6.00889 10.442 5.83329 10 5.83329ZM4.16667 16.6666H15.8333V18.3333H4.16667V16.6666Z" fill="black" fill-opacity="0.2"/>
</svg>
