<svg width="20" height="20" viewBox="0 0 20 20" fill="none" xmlns="http://www.w3.org/2000/svg">
<path d="M9.99984 15.8333C8.0415 14.3888 6.57956 12.9861 5.614 11.625C4.649 10.2638 4.1665 8.93051 4.1665 7.62496C4.1665 6.63885 4.34373 5.77413 4.69817 5.03079C5.05206 4.28802 5.50678 3.66663 6.06234 3.16663C6.61789 2.66663 7.24289 2.29163 7.93734 2.04163C8.63178 1.79163 9.31928 1.66663 9.99984 1.66663C10.6804 1.66663 11.3679 1.79163 12.0623 2.04163C12.7568 2.29163 13.3818 2.66663 13.9373 3.16663C14.4929 3.66663 14.9479 4.28802 15.3023 5.03079C15.6562 5.77413 15.8332 6.63885 15.8332 7.62496C15.8332 8.93051 15.3504 10.2638 14.3848 11.625C13.4198 12.9861 11.9582 14.3888 9.99984 15.8333ZM9.99984 9.16663C10.4582 9.16663 10.8507 9.00329 11.1773 8.67663C11.5034 8.35051 11.6665 7.95829 11.6665 7.49996C11.6665 7.04163 11.5034 6.64913 11.1773 6.32246C10.8507 5.99635 10.4582 5.83329 9.99984 5.83329C9.5415 5.83329 9.14928 5.99635 8.82317 6.32246C8.4965 6.64913 8.33317 7.04163 8.33317 7.49996C8.33317 7.95829 8.4965 8.35051 8.82317 8.67663C9.14928 9.00329 9.5415 9.16663 9.99984 9.16663ZM4.1665 18.3333V16.6666H15.8332V18.3333H4.1665Z" fill="black"/>
</svg>
