<svg width="12" height="16" viewBox="0 0 12 16" fill="none" xmlns="http://www.w3.org/2000/svg">
<path d="M5.99775 13.3253C4.22295 12.0125 2.90415 10.7438 2.04135 9.51921C1.17915 8.29401 0.748047 7.08771 0.748047 5.90031C0.748047 5.01291 0.904347 4.23141 1.21695 3.5558C1.52895 2.88141 1.93815 2.31921 2.44455 1.86921C2.95095 1.41921 3.51675 1.07841 4.14195 0.846805C4.76655 0.615805 5.38515 0.500305 5.99775 0.500305C6.62295 0.500305 7.24485 0.615805 7.86345 0.846805C8.48205 1.07841 9.04455 1.41921 9.55095 1.86921C10.0573 2.31921 10.4665 2.88141 10.7785 3.5558C11.0911 4.23141 11.2474 5.01291 11.2474 5.90031C11.2474 7.08771 10.8163 8.29401 9.95415 9.51921C9.09135 10.7438 7.77255 12.0125 5.99775 13.3253ZM5.99775 7.32501C6.42255 7.32501 6.78495 7.17501 7.08495 6.87501C7.38495 6.57501 7.53495 6.21261 7.53495 5.78781C7.53495 5.36241 7.38495 4.99971 7.08495 4.69971C6.78495 4.39971 6.42255 4.24971 5.99775 4.24971C5.57295 4.24971 5.21055 4.39971 4.91055 4.69971C4.61055 4.99971 4.46055 5.36241 4.46055 5.78781C4.46055 6.21261 4.61055 6.57501 4.91055 6.87501C5.21055 7.17501 5.57295 7.32501 5.99775 7.32501ZM0.748047 15.4997V13.9247H11.2474V15.4997H0.748047Z" fill="white"/>
</svg>
