<svg width="24" height="24" viewBox="0 0 24 24" fill="none" xmlns="http://www.w3.org/2000/svg">
<path d="M19 22C18.1667 22 17.4583 21.7083 16.875 21.125C16.2917 20.5417 16 19.8333 16 19C16 18.3333 16.1873 17.746 16.562 17.238C16.9373 16.7293 17.4167 16.375 18 16.175V7.825C17.4167 7.625 16.9373 7.27067 16.562 6.762C16.1873 6.254 16 5.66667 16 5C16 4.16667 16.2917 3.45833 16.875 2.875C17.4583 2.29167 18.1667 2 19 2C19.8333 2 20.5417 2.29167 21.125 2.875C21.7083 3.45833 22 4.16667 22 5C22 5.66667 21.8127 6.254 21.438 6.762C21.0627 7.27067 20.5833 7.625 20 7.825V16.175C20.5833 16.3917 21.0627 16.754 21.438 17.262C21.8127 17.7707 22 18.35 22 19C22 19.8333 21.7083 20.5417 21.125 21.125C20.5417 21.7083 19.8333 22 19 22ZM19 20C19.2833 20 19.5207 19.904 19.712 19.712C19.904 19.5207 20 19.2833 20 19C20 18.7167 19.904 18.4793 19.712 18.288C19.5207 18.096 19.2833 18 19 18C18.7167 18 18.4793 18.096 18.288 18.288C18.096 18.4793 18 18.7167 18 19C18 19.2833 18.096 19.5207 18.288 19.712C18.4793 19.904 18.7167 20 19 20ZM19 6C19.2833 6 19.5207 5.90433 19.712 5.713C19.904 5.521 20 5.28333 20 5C20 4.71667 19.904 4.479 19.712 4.287C19.5207 4.09567 19.2833 4 19 4C18.7167 4 18.4793 4.09567 18.288 4.287C18.096 4.479 18 4.71667 18 5C18 5.28333 18.096 5.521 18.288 5.713C18.4793 5.90433 18.7167 6 19 6Z" fill="black"/>
<path d="M5 22C4.16667 22 3.45833 21.7083 2.875 21.125C2.29167 20.5417 2 19.8333 2 19C2 18.3333 2.18733 17.746 2.562 17.238C2.93733 16.7293 3.41667 16.375 4 16.175V7.825C3.41667 7.625 2.93733 7.27067 2.562 6.762C2.18733 6.254 2 5.66667 2 5C2 4.16667 2.29167 3.45833 2.875 2.875C3.45833 2.29167 4.16667 2 5 2C5.83333 2 6.54167 2.29167 7.125 2.875C7.70833 3.45833 8 4.16667 8 5C8 5.66667 7.81267 6.254 7.438 6.762C7.06267 7.27067 6.58333 7.625 6 7.825V16.175C6.58333 16.3917 7.06267 16.754 7.438 17.262C7.81267 17.7707 8 18.35 8 19C8 19.8333 7.70833 20.5417 7.125 21.125C6.54167 21.7083 5.83333 22 5 22ZM5 20C5.28333 20 5.52067 19.904 5.712 19.712C5.904 19.5207 6 19.2833 6 19C6 18.7167 5.904 18.4793 5.712 18.288C5.52067 18.096 5.28333 18 5 18C4.71667 18 4.47933 18.096 4.288 18.288C4.096 18.4793 4 18.7167 4 19C4 19.2833 4.096 19.5207 4.288 19.712C4.47933 19.904 4.71667 20 5 20ZM5 6C5.28333 6 5.52067 5.90433 5.712 5.713C5.904 5.521 6 5.28333 6 5C6 4.71667 5.904 4.479 5.712 4.287C5.52067 4.09567 5.28333 4 5 4C4.71667 4 4.47933 4.09567 4.288 4.287C4.096 4.479 4 4.71667 4 5C4 5.28333 4.096 5.521 4.288 5.713C4.47933 5.90433 4.71667 6 5 6Z" fill="black"/>
<path d="M2 19C2 18.1667 2.29167 17.4583 2.875 16.875C3.45833 16.2917 4.16667 16 5 16C5.66667 16 6.254 16.1873 6.762 16.562C7.27067 16.9373 7.625 17.4167 7.825 18L16.175 18C16.375 17.4167 16.7293 16.9373 17.238 16.562C17.746 16.1873 18.3333 16 19 16C19.8333 16 20.5417 16.2917 21.125 16.875C21.7083 17.4583 22 18.1667 22 19C22 19.8333 21.7083 20.5417 21.125 21.125C20.5417 21.7083 19.8333 22 19 22C18.3333 22 17.746 21.8127 17.238 21.438C16.7293 21.0627 16.375 20.5833 16.175 20L7.825 20C7.60833 20.5833 7.246 21.0627 6.738 21.438C6.22933 21.8127 5.65 22 5 22C4.16667 22 3.45833 21.7083 2.875 21.125C2.29167 20.5417 2 19.8333 2 19ZM4 19C4 19.2833 4.096 19.5207 4.288 19.712C4.47933 19.904 4.71667 20 5 20C5.28333 20 5.52067 19.904 5.712 19.712C5.904 19.5207 6 19.2833 6 19C6 18.7167 5.904 18.4793 5.712 18.288C5.52067 18.096 5.28333 18 5 18C4.71667 18 4.47933 18.096 4.288 18.288C4.096 18.4793 4 18.7167 4 19ZM18 19C18 19.2833 18.0957 19.5207 18.287 19.712C18.479 19.904 18.7167 20 19 20C19.2833 20 19.521 19.904 19.713 19.712C19.9043 19.5207 20 19.2833 20 19C20 18.7167 19.9043 18.4793 19.713 18.288C19.521 18.096 19.2833 18 19 18C18.7167 18 18.479 18.096 18.287 18.288C18.0957 18.4793 18 18.7167 18 19Z" fill="black"/>
<path d="M2 5C2 4.16667 2.29167 3.45833 2.875 2.875C3.45833 2.29167 4.16667 2 5 2C5.66667 2 6.254 2.18733 6.762 2.562C7.27067 2.93733 7.625 3.41667 7.825 4L16.175 4C16.375 3.41667 16.7293 2.93733 17.238 2.562C17.746 2.18733 18.3333 2 19 2C19.8333 2 20.5417 2.29167 21.125 2.875C21.7083 3.45833 22 4.16667 22 5C22 5.83333 21.7083 6.54167 21.125 7.125C20.5417 7.70833 19.8333 8 19 8C18.3333 8 17.746 7.81267 17.238 7.438C16.7293 7.06267 16.375 6.58333 16.175 6L7.825 6C7.60833 6.58333 7.246 7.06267 6.738 7.438C6.22933 7.81267 5.65 8 5 8C4.16667 8 3.45833 7.70833 2.875 7.125C2.29167 6.54167 2 5.83333 2 5ZM4 5C4 5.28333 4.096 5.52067 4.288 5.712C4.47933 5.904 4.71667 6 5 6C5.28333 6 5.52067 5.904 5.712 5.712C5.904 5.52067 6 5.28333 6 5C6 4.71667 5.904 4.47933 5.712 4.288C5.52067 4.096 5.28333 4 5 4C4.71667 4 4.47933 4.096 4.288 4.288C4.096 4.47933 4 4.71667 4 5ZM18 5C18 5.28333 18.0957 5.52067 18.287 5.712C18.479 5.904 18.7167 6 19 6C19.2833 6 19.521 5.904 19.713 5.712C19.9043 5.52067 20 5.28333 20 5C20 4.71667 19.9043 4.47933 19.713 4.288C19.521 4.096 19.2833 4 19 4C18.7167 4 18.479 4.096 18.287 4.288C18.0957 4.47933 18 4.71667 18 5Z" fill="black"/>
</svg>
