<svg width="20" height="20" viewBox="0 0 20 20" fill="none" xmlns="http://www.w3.org/2000/svg">
<path d="M17 6V15.5C17 15.9167 16.854 16.2707 16.562 16.562C16.2707 16.854 15.9167 17 15.5 17H4.5C4.08333 17 3.72933 16.854 3.438 16.562C3.146 16.2707 3 15.9167 3 15.5V4.5C3 4.08333 3.146 3.72933 3.438 3.438C3.72933 3.146 4.08333 3 4.5 3H14L17 6ZM15.5 6.625L13.375 4.5H4.5V15.5H15.5V6.625ZM10 14.75C10.6253 14.75 11.1567 14.5313 11.594 14.094C12.0313 13.6567 12.25 13.1253 12.25 12.5C12.25 11.8747 12.0313 11.3433 11.594 10.906C11.1567 10.4687 10.6253 10.25 10 10.25C9.37467 10.25 8.84333 10.4687 8.406 10.906C7.96867 11.3433 7.75 11.8747 7.75 12.5C7.75 13.1253 7.96867 13.6567 8.406 14.094C8.84333 14.5313 9.37467 14.75 10 14.75ZM5.5 8.5H12.5V5.5H5.5V8.5ZM4.5 6.896V15.5V4.5V6.896Z" fill="black"/>
</svg>
