<svg width="20" height="20" viewBox="0 0 20 20" fill="none" xmlns="http://www.w3.org/2000/svg">
<path d="M10.9001 12.5H9.2334V14.1667H10.9001V12.5Z" fill="white"/>
<path d="M10.9001 5.83337H9.2334V10.8334H10.9001V5.83337Z" fill="white"/>
<path d="M14.2334 0.841707L5.90007 0.833374C4.9834 0.833374 4.2334 1.58337 4.2334 2.50004V17.5C4.2334 18.4167 4.9834 19.1667 5.90007 19.1667H14.2334C15.1501 19.1667 15.9001 18.4167 15.9001 17.5V2.50004C15.9001 1.58337 15.1501 0.841707 14.2334 0.841707ZM14.2334 17.5H5.90007V16.6667H14.2334V17.5ZM14.2334 15H5.90007V5.00004H14.2334V15ZM14.2334 3.33337H5.90007V2.50004H14.2334V3.33337Z" fill="white"/>
</svg>
