<svg width="21" height="20" viewBox="0 0 21 20" fill="none" xmlns="http://www.w3.org/2000/svg">
<path d="M4.23319 17.5C3.77486 17.5 3.38236 17.3369 3.05569 17.0108C2.72958 16.6842 2.56653 16.2917 2.56653 15.8333H4.23319V17.5ZM2.56653 14.1667V12.5H4.23319V14.1667H2.56653ZM2.56653 10.8333V9.16667H4.23319V10.8333H2.56653ZM2.56653 7.5V5.83333H4.23319V7.5H2.56653ZM2.56653 4.16667C2.56653 3.70833 2.72958 3.31583 3.05569 2.98917C3.38236 2.66306 3.77486 2.5 4.23319 2.5V4.16667H2.56653ZM5.89986 14.1667V5.83333H14.2332V14.1667H5.89986ZM5.89986 17.5V15.8333H7.56653V17.5H5.89986ZM5.89986 4.16667V2.5H7.56653V4.16667H5.89986ZM7.56653 12.5H12.5665V7.5H7.56653V12.5ZM9.23319 17.5V15.8333H10.8999V17.5H9.23319ZM9.23319 4.16667V2.5H10.8999V4.16667H9.23319ZM12.5665 17.5V15.8333H14.2332V17.5H12.5665ZM12.5665 4.16667V2.5H14.2332V4.16667H12.5665ZM15.8999 17.5V15.8333H17.5665C17.5665 16.2917 17.4035 16.6842 17.0774 17.0108C16.7507 17.3369 16.3582 17.5 15.8999 17.5ZM15.8999 14.1667V12.5H17.5665V14.1667H15.8999ZM15.8999 10.8333V9.16667H17.5665V10.8333H15.8999ZM15.8999 7.5V5.83333H17.5665V7.5H15.8999ZM15.8999 4.16667V2.5C16.3582 2.5 16.7507 2.66306 17.0774 2.98917C17.4035 3.31583 17.5665 3.70833 17.5665 4.16667H15.8999Z" fill="white"/>
</svg>
