<svg width="20" height="20" viewBox="0 0 20 20" fill="none" xmlns="http://www.w3.org/2000/svg">
<path d="M12.5 7.5H7.5V12.5H12.5V7.5ZM10.8333 10.8333H9.16667V9.16667H10.8333V10.8333ZM17.5 9.16667V7.5H15.8333V5.83333C15.8333 4.91667 15.0833 4.16667 14.1667 4.16667H12.5V2.5H10.8333V4.16667H9.16667V2.5H7.5V4.16667H5.83333C4.91667 4.16667 4.16667 4.91667 4.16667 5.83333V7.5H2.5V9.16667H4.16667V10.8333H2.5V12.5H4.16667V14.1667C4.16667 15.0833 4.91667 15.8333 5.83333 15.8333H7.5V17.5H9.16667V15.8333H10.8333V17.5H12.5V15.8333H14.1667C15.0833 15.8333 15.8333 15.0833 15.8333 14.1667V12.5H17.5V10.8333H15.8333V9.16667H17.5ZM14.1667 14.1667H5.83333V5.83333H14.1667V14.1667Z" fill="#333333"/>
</svg>
