<svg width="20" height="20" viewBox="0 0 20 20" fill="none" xmlns="http://www.w3.org/2000/svg">
<path d="M4.99805 18V2H6.49805V4H17.998L15.998 8L17.998 12H6.49805V18H4.99805ZM6.49805 5.5V10.5V5.5ZM10.998 9.5C11.4147 9.5 11.7687 9.354 12.06 9.062C12.352 8.77067 12.498 8.41667 12.498 8C12.498 7.58333 12.352 7.22933 12.06 6.938C11.7687 6.646 11.4147 6.5 10.998 6.5C10.5814 6.5 10.2274 6.646 9.93605 6.938C9.64405 7.22933 9.49805 7.58333 9.49805 8C9.49805 8.41667 9.64405 8.77067 9.93605 9.062C10.2274 9.354 10.5814 9.5 10.998 9.5ZM6.49805 10.5H15.56L14.31 8L15.56 5.5H6.49805V10.5Z" fill="black"/>
</svg>
