<svg width="16" height="10" viewBox="0 0 16 10" fill="none" xmlns="http://www.w3.org/2000/svg">
<path d="M3.80641 9.12C2.64641 9.12 1.74241 8.796 1.09441 8.148C0.446406 7.492 0.122406 6.556 0.122406 5.34V0.599999H1.68241V5.28C1.68241 6.928 2.39441 7.752 3.81841 7.752C5.23441 7.752 5.94241 6.928 5.94241 5.28V0.599999H7.47841V5.34C7.47841 6.556 7.15441 7.492 6.50641 8.148C5.86641 8.796 4.96641 9.12 3.80641 9.12ZM12.2672 9.12C11.6192 9.12 10.9912 9.028 10.3832 8.844C9.78316 8.66 9.30716 8.416 8.95516 8.112L9.49516 6.9C9.83916 7.172 10.2592 7.396 10.7552 7.572C11.2592 7.74 11.7632 7.824 12.2672 7.824C12.8912 7.824 13.3552 7.724 13.6592 7.524C13.9712 7.324 14.1272 7.06 14.1272 6.732C14.1272 6.492 14.0392 6.296 13.8632 6.144C13.6952 5.984 13.4792 5.86 13.2152 5.772C12.9512 5.684 12.5912 5.584 12.1352 5.472C11.4952 5.32 10.9752 5.168 10.5752 5.016C10.1832 4.864 9.84316 4.628 9.55516 4.308C9.27516 3.98 9.13516 3.54 9.13516 2.988C9.13516 2.524 9.25916 2.104 9.50716 1.728C9.76316 1.344 10.1432 1.04 10.6472 0.816C11.1592 0.592 11.7832 0.48 12.5192 0.48C13.0312 0.48 13.5352 0.544 14.0312 0.672C14.5272 0.8 14.9552 0.984 15.3152 1.224L14.8232 2.436C14.4552 2.22 14.0712 2.056 13.6712 1.944C13.2712 1.832 12.8832 1.776 12.5072 1.776C11.8912 1.776 11.4312 1.88 11.1272 2.088C10.8312 2.296 10.6832 2.572 10.6832 2.916C10.6832 3.156 10.7672 3.352 10.9352 3.504C11.1112 3.656 11.3312 3.776 11.5952 3.864C11.8592 3.952 12.2192 4.052 12.6752 4.164C13.2992 4.308 13.8112 4.46 14.2112 4.62C14.6112 4.772 14.9512 5.008 15.2312 5.328C15.5192 5.648 15.6632 6.08 15.6632 6.624C15.6632 7.088 15.5352 7.508 15.2792 7.884C15.0312 8.26 14.6512 8.56 14.1392 8.784C13.6272 9.008 13.0032 9.12 12.2672 9.12Z" fill="white"/>
</svg>
