<svg width="20" height="20" viewBox="0 0 20 20" fill="none" xmlns="http://www.w3.org/2000/svg">
<path d="M9.99967 13.8334C11.0413 13.8334 11.9269 13.4689 12.6563 12.74C13.3852 12.0106 13.7497 11.125 13.7497 10.0834C13.7497 9.04171 13.3852 8.15615 12.6563 7.42671C11.9269 6.69782 11.0413 6.33337 9.99967 6.33337C8.95801 6.33337 8.07245 6.69782 7.34301 7.42671C6.61412 8.15615 6.24967 9.04171 6.24967 10.0834C6.24967 11.125 6.61412 12.0106 7.34301 12.74C8.07245 13.4689 8.95801 13.8334 9.99967 13.8334ZM9.99967 12.3334C9.37467 12.3334 8.84356 12.1145 8.40634 11.6767C7.96856 11.2395 7.74967 10.7084 7.74967 10.0834C7.74967 9.45837 7.96856 8.92698 8.40634 8.48921C8.84356 8.05198 9.37467 7.83337 9.99967 7.83337C10.6247 7.83337 11.1561 8.05198 11.5938 8.48921C12.0311 8.92698 12.2497 9.45837 12.2497 10.0834C12.2497 10.7084 12.0311 11.2395 11.5938 11.6767C11.1561 12.1145 10.6247 12.3334 9.99967 12.3334V12.3334ZM9.99967 16.3334C7.9719 16.3334 6.12467 15.7673 4.45801 14.635C2.79134 13.5034 1.58301 11.9862 0.833008 10.0834C1.58301 8.1806 2.79134 6.6631 4.45801 5.53087C6.12467 4.39921 7.9719 3.83337 9.99967 3.83337C12.0275 3.83337 13.8747 4.39921 15.5413 5.53087C17.208 6.6631 18.4163 8.1806 19.1663 10.0834C18.4163 11.9862 17.208 13.5034 15.5413 14.635C13.8747 15.7673 12.0275 16.3334 9.99967 16.3334Z" fill="black"/>
<path d="M9.99967 13.8334C11.0413 13.8334 11.9269 13.4689 12.6563 12.74C13.3852 12.0106 13.7497 11.125 13.7497 10.0834C13.7497 9.04171 13.3852 8.15615 12.6563 7.42671C11.9269 6.69782 11.0413 6.33337 9.99967 6.33337C8.95801 6.33337 8.07245 6.69782 7.34301 7.42671C6.61412 8.15615 6.24967 9.04171 6.24967 10.0834C6.24967 11.125 6.61412 12.0106 7.34301 12.74C8.07245 13.4689 8.95801 13.8334 9.99967 13.8334ZM9.99967 12.3334C9.37467 12.3334 8.84356 12.1145 8.40634 11.6767C7.96856 11.2395 7.74967 10.7084 7.74967 10.0834C7.74967 9.45837 7.96856 8.92698 8.40634 8.48921C8.84356 8.05198 9.37467 7.83337 9.99967 7.83337C10.6247 7.83337 11.1561 8.05198 11.5938 8.48921C12.0311 8.92698 12.2497 9.45837 12.2497 10.0834C12.2497 10.7084 12.0311 11.2395 11.5938 11.6767C11.1561 12.1145 10.6247 12.3334 9.99967 12.3334V12.3334ZM9.99967 16.3334C7.9719 16.3334 6.12467 15.7673 4.45801 14.635C2.79134 13.5034 1.58301 11.9862 0.833008 10.0834C1.58301 8.1806 2.79134 6.6631 4.45801 5.53087C6.12467 4.39921 7.9719 3.83337 9.99967 3.83337C12.0275 3.83337 13.8747 4.39921 15.5413 5.53087C17.208 6.6631 18.4163 8.1806 19.1663 10.0834C18.4163 11.9862 17.208 13.5034 15.5413 14.635C13.8747 15.7673 12.0275 16.3334 9.99967 16.3334Z" fill="black" fill-opacity="0.2"/>
</svg>
