<svg width="20" height="20" viewBox="0 0 20 20" fill="none" xmlns="http://www.w3.org/2000/svg">
<path d="M10.0667 6.22078C7.3084 6.22078 5.06673 8.46245 5.06673 11.2208C5.06673 12.6041 5.6334 13.8458 6.5334 14.7541L7.71673 13.5708C7.1084 12.9708 6.7334 12.1458 6.7334 11.2208C6.7334 9.37912 8.22506 7.88745 10.0667 7.88745C11.9084 7.88745 13.4001 9.37912 13.4001 11.2208C13.4001 12.1458 13.0251 12.9708 12.4167 13.5708L13.6001 14.7541C14.5001 13.8458 15.0667 12.6041 15.0667 11.2208C15.0667 8.46245 12.8251 6.22078 10.0667 6.22078ZM10.0667 2.88745C5.46673 2.88745 1.7334 6.62078 1.7334 11.2208C1.7334 13.5208 2.66673 15.6041 4.17506 17.1125L5.3584 15.9291C4.15006 14.7291 3.40007 13.0625 3.40007 11.2208C3.40007 7.53745 6.3834 4.55412 10.0667 4.55412C12.1751 4.55412 14.0501 5.52912 15.2667 7.05412H17.2834C15.8417 4.56245 13.1501 2.88745 10.0667 2.88745ZM10.0667 9.55412C9.15006 9.55412 8.40006 10.3041 8.40006 11.2208C8.40006 11.6791 8.59173 12.0958 8.89173 12.3958C9.19173 12.6958 9.6084 12.8875 10.0667 12.8875C10.5251 12.8875 10.9417 12.6958 11.2417 12.3958C11.5417 12.0958 11.7334 11.6791 11.7334 11.2208C11.7334 10.3041 10.9834 9.55412 10.0667 9.55412ZM16.7334 8.72078H18.4001V13.7208H16.7334V8.72078ZM16.7334 15.3875H18.4001V17.0541H16.7334V15.3875Z" fill="white"/>
</svg>
